<svg width="1200" height="630" viewBox="0 0 1200 630" fill="none" xmlns="http://www.w3.org/2000/svg">
  <!-- Background -->
  <rect width="1200" height="630" fill="#000000"/>

  <!-- Grid pattern -->
  <g opacity="0.04" stroke="#fff" stroke-width="1">
    <line x1="0" y1="80" x2="1200" y2="80"/>
    <line x1="0" y1="160" x2="1200" y2="160"/>
    <line x1="0" y1="240" x2="1200" y2="240"/>
    <line x1="0" y1="320" x2="1200" y2="320"/>
    <line x1="0" y1="400" x2="1200" y2="400"/>
    <line x1="0" y1="480" x2="1200" y2="480"/>
    <line x1="0" y1="560" x2="1200" y2="560"/>
    <line x1="80" y1="0" x2="80" y2="630"/>
    <line x1="160" y1="0" x2="160" y2="630"/>
    <line x1="240" y1="0" x2="240" y2="630"/>
    <line x1="320" y1="0" x2="320" y2="630"/>
    <line x1="400" y1="0" x2="400" y2="630"/>
    <line x1="480" y1="0" x2="480" y2="630"/>
    <line x1="560" y1="0" x2="560" y2="630"/>
    <line x1="640" y1="0" x2="640" y2="630"/>
    <line x1="720" y1="0" x2="720" y2="630"/>
    <line x1="800" y1="0" x2="800" y2="630"/>
    <line x1="880" y1="0" x2="880" y2="630"/>
    <line x1="960" y1="0" x2="960" y2="630"/>
    <line x1="1040" y1="0" x2="1040" y2="630"/>
    <line x1="1120" y1="0" x2="1120" y2="630"/>
  </g>

  <!-- Gradient glow -->
  <ellipse cx="600" cy="350" rx="500" ry="250" fill="url(#glow)" opacity="0.12"/>

  <!-- Logo / Brand -->
  <text x="600" y="200" text-anchor="middle" font-family="Inter, -apple-system, system-ui, sans-serif" font-size="72" font-weight="800" fill="#ffffff" letter-spacing="-3">
    Seogard
  </text>

  <!-- Tagline -->
  <text x="600" y="280" text-anchor="middle" font-family="Inter, -apple-system, system-ui, sans-serif" font-size="28" font-weight="600" fill="url(#textGradient)">
    Monitoring SEO technique
  </text>

  <!-- Subtitle -->
  <text x="600" y="340" text-anchor="middle" font-family="Inter, -apple-system, system-ui, sans-serif" font-size="20" fill="rgba(255,255,255,0.5)">
    Compare HTML brut vs rendu JavaScript. Alerte instantanee.
  </text>

  <!-- Stats -->
  <g transform="translate(250, 420)">
    <text x="0" y="0" font-family="Inter, sans-serif" font-size="32" font-weight="700" fill="#fff">Gratuit</text>
    <text x="0" y="30" font-family="Inter, sans-serif" font-size="14" fill="#6b7280">Self-hosted</text>
  </g>

  <line x1="430" y1="405" x2="430" y2="455" stroke="#1f2937" stroke-width="1"/>

  <g transform="translate(480, 420)">
    <text x="0" y="0" font-family="Inter, sans-serif" font-size="32" font-weight="700" fill="#fff">Instant</text>
    <text x="0" y="30" font-family="Inter, sans-serif" font-size="14" fill="#6b7280">Alertes</text>
  </g>

  <line x1="660" y1="405" x2="660" y2="455" stroke="#1f2937" stroke-width="1"/>

  <g transform="translate(710, 420)">
    <text x="0" y="0" font-family="Inter, sans-serif" font-size="32" font-weight="700" fill="#fff">BSL 1.1</text>
    <text x="0" y="30" font-family="Inter, sans-serif" font-size="14" fill="#6b7280">Open-source</text>
  </g>

  <!-- URL -->
  <text x="600" y="550" text-anchor="middle" font-family="Inter, sans-serif" font-size="18" fill="rgba(255,255,255,0.3)">
    seogard.io
  </text>

  <defs>
    <linearGradient id="textGradient" x1="0%" y1="0%" x2="100%" y2="0%">
      <stop offset="0%" stop-color="#ff0080"/>
      <stop offset="50%" stop-color="#7928ca"/>
      <stop offset="100%" stop-color="#2979ff"/>
    </linearGradient>
    <radialGradient id="glow" cx="50%" cy="50%" r="50%">
      <stop offset="0%" stop-color="#7928ca"/>
      <stop offset="100%" stop-color="transparent"/>
    </radialGradient>
  </defs>
</svg>
